<?xml version="1.0" encoding="UTF-8" standalone="no"?>
<!-- Created with Sodipodi ("http://www.sodipodi.com/") -->

<svg
   xmlns:dc="http://purl.org/dc/elements/1.1/"
   xmlns:cc="http://creativecommons.org/ns#"
   xmlns:rdf="http://www.w3.org/1999/02/22-rdf-syntax-ns#"
   xmlns:svg="http://www.w3.org/2000/svg"
   xmlns="http://www.w3.org/2000/svg"
   xmlns:xlink="http://www.w3.org/1999/xlink"
   xmlns:sodipodi="http://sodipodi.sourceforge.net/DTD/sodipodi-0.dtd"
   xmlns:inkscape="http://www.inkscape.org/namespaces/inkscape"
   id="svg690"
   sodipodi:version="0.32"
   width="404"
   height="398"
   xml:space="preserve"
   sodipodi:docname="boy2.svg"
   inkscape:version="0.91 r13725"
   inkscape:output_extension="org.inkscape.output.svg.inkscape"
   version="1.0"><metadata
     id="metadata23"><rdf:RDF><cc:Work
         rdf:about=""><dc:format>image/svg+xml</dc:format><dc:type
           rdf:resource="http://purl.org/dc/dcmitype/StillImage" /><dc:title></dc:title></cc:Work></rdf:RDF></metadata><defs
     id="defs692"><inkscape:perspective
       sodipodi:type="inkscape:persp3d"
       inkscape:vp_x="0 : 526.18109 : 1"
       inkscape:vp_y="0 : 1000 : 0"
       inkscape:vp_z="744.09448 : 526.18109 : 1"
       inkscape:persp3d-origin="372.04724 : 350.78739 : 1"
       id="perspective25" /><linearGradient
       id="linearGradient705"><stop
         style="stop-color:#ffffff;stop-opacity:1;"
         offset="0"
         id="stop706" /><stop
         style="stop-color:#4c4c7a;stop-opacity:1;"
         offset="1"
         id="stop707" /></linearGradient><linearGradient
       id="linearGradient694"><stop
         style="stop-color:#c7f0ff;stop-opacity:1;"
         offset="0"
         id="stop695" /><stop
         style="stop-color:#ffffff;stop-opacity:1;"
         offset="1"
         id="stop696" /></linearGradient><linearGradient
       xlink:href="#linearGradient694"
       id="linearGradient697"
       x1="74.833076"
       y1="224.92026"
       x2="579.74213"
       y2="987.05554"
       gradientTransform="matrix(1.2403472,0,0,0.8062259,99.100189,-166.10214)"
       gradientUnits="userSpaceOnUse" /><linearGradient
       xlink:href="#linearGradient694"
       id="linearGradient700"
       x1="0.495"
       y1="0.9609375"
       x2="0.49000001"
       y2="-0.1796875" /><linearGradient
       xlink:href="#linearGradient694"
       id="linearGradient703"
       y2="572.83191"
       x2="201.4899"
       y1="52.162842"
       x1="645.30786"
       gradientTransform="scale(1.1616636,0.8608344)"
       gradientUnits="userSpaceOnUse" /><linearGradient
       xlink:href="#linearGradient694"
       id="linearGradient708"
       x1="183.00497"
       y1="837.26624"
       x2="177.1879"
       y2="346.11108"
       gradientTransform="matrix(2.2504214,0,0,0.4443612,99.100189,-166.10214)"
       gradientUnits="userSpaceOnUse" /><radialGradient
       xlink:href="#linearGradient705"
       id="radialGradient709"
       cx="459.01657"
       cy="291.24692"
       r="358.83459"
       fx="459.01657"
       fy="291.24692"
       gradientTransform="scale(1.1544482,0.8662147)"
       gradientUnits="userSpaceOnUse" /><linearGradient
       inkscape:collect="always"
       xlink:href="#linearGradient694"
       id="linearGradient2409"
       gradientUnits="userSpaceOnUse"
       gradientTransform="scale(1.1616636,0.8608344)"
       x1="645.30786"
       y1="52.162842"
       x2="201.4899"
       y2="572.83191" /><radialGradient
       inkscape:collect="always"
       xlink:href="#linearGradient705"
       id="radialGradient2411"
       gradientUnits="userSpaceOnUse"
       gradientTransform="scale(1.1544482,0.8662147)"
       cx="459.01657"
       cy="291.24692"
       fx="459.01657"
       fy="291.24692"
       r="358.83459" /><linearGradient
       inkscape:collect="always"
       xlink:href="#linearGradient694"
       id="linearGradient2413"
       gradientUnits="userSpaceOnUse"
       gradientTransform="matrix(2.2504214,0,0,0.4443612,99.100189,-166.10214)"
       x1="183.00497"
       y1="837.26624"
       x2="177.1879"
       y2="346.11108" /><filter
       id="filter4654"
       height="1.4531"
       width="1.4208"
       y="-0.22657"
       x="-0.21039"
       inkscape:collect="always"><feGaussianBlur
         id="feGaussianBlur4656"
         stdDeviation="1.1201556"
         inkscape:collect="always" /></filter><radialGradient
       id="radialGradient5591"
       gradientUnits="userSpaceOnUse"
       cy="24.792999"
       cx="326.75"
       gradientTransform="matrix(0.53911494,2.7597586,-1.9529534,0.32207038,65.940709,-866.11496)"
       r="69.333"
       inkscape:collect="always"><stop
         id="stop4634"
         style="stop-color:#ff9933"
         offset="0" /><stop
         id="stop4636"
         style="stop-color:#ffcc00"
         offset="1" /></radialGradient></defs><sodipodi:namedview
     id="base"
     showgrid="false"
     inkscape:zoom="0.33193016"
     inkscape:cx="341.58474"
     inkscape:cy="251.17823"
     inkscape:window-width="1303"
     inkscape:window-height="744"
     inkscape:window-x="63"
     inkscape:window-y="24"
     inkscape:current-layer="svg690"
     inkscape:window-maximized="1" /><path
     id="path4582"
     sodipodi:nodetypes="csc"
     style="fill:#ffdb9d;stroke:#262316;stroke-width:2.52355719"
     inkscape:connector-curvature="0"
     d="m 358.89979,247.49119 c -6.06479,-24.25995 20.83801,-10.67968 28.4204,7.2179 9.40336,22.19553 -42.20775,37.50723 -42.20775,37.50723" /><path
     id="path4584"
     sodipodi:nodetypes="cscc"
     style="fill:#ffdb9d;stroke:#262316;stroke-width:2.52355719"
     inkscape:connector-curvature="0"
     d="m 35.284579,238.21853 c 18.68094,-20.02489 -18.08213,-4.67635 -27.9810299,7.64255 -17.05335,21.22232 55.7777899,47.98131 55.7777899,47.98131 z" /><path
     id="path4570"
     sodipodi:nodetypes="sssccs"
     style="fill:#ffdb9d;stroke:#262316;stroke-width:2.52355719"
     inkscape:connector-curvature="0"
     d="M 361.79574,222.03842 C 347.8016,290.82545 362.00659,401.98446 211.54268,393.1042 79.545839,385.31572 45.350219,288.40378 38.174689,212.78996 33.345479,161.89247 127.74731,104.13856 127.74731,104.13856 l 182.0354,11.55859 c 0,0 61.21281,61.10011 52.01013,106.33992 z" /><path
     id="path4572"
     sodipodi:nodetypes="cccsccccccsccsssssc"
     style="fill:url(#radialGradient5591);stroke:#262316;stroke-width:2.52355719"
     inkscape:connector-curvature="0"
     d="m 396.48866,233.59566 -34.67241,11.55856 -8.66828,-43.92285 c 0,0 -17.33678,55.48006 -20.22632,43.92285 -2.8894,-11.55856 -23.11584,-53.16861 -23.11584,-53.16861 l -28.93024,62.43591 -26.00506,-57.80498 -23.98665,25.41786 -30.89016,-62.40636 c -38.326,25.5904 -78.72307,49.06718 -85.9922,106.36146 0,0 31.092,-131.79273 16.64529,-94.80423 -14.44729,36.98851 -52.010111,69.35143 -52.010111,69.35143 -1.45386,-25.12245 -3.63544,-49.57781 -26.00506,-55.48006 0,0 -5.77872,76.28576 -17.33679,57.7915 -11.55777,-18.49369 13.14204,-76.90394 8.24702,-63.78514 -3.32302,8.90713 -20.74964,96.52166 -20.22631,57.79151 0.50476,-37.36478 -59.4226,-44.541 -2.46772,-125.77489 22.90817,-32.67468 55.31266,-97.10491 193.306201,-95.95724 225.59169,1.87387 182.32206,218.48 182.32206,218.48 z" /><ellipse
     id="path4574"
     style="fill:#000000;fill-opacity:0.99216003;stroke:#262316;stroke-width:2.52358818"
     transform="scale(-1,1)"
     cx="-263.28586"
     cy="264.42746"
     rx="10.343939"
     ry="9.5799599" /><path
     id="path4576"
     sodipodi:nodetypes="csc"
     style="fill:#0e232e;stroke:#262316;stroke-width:2.52355719"
     inkscape:connector-curvature="0"
     d="m 227.06088,293.02131 c -10.20398,3.58732 -12.0334,12.10686 -29.52407,5.82915 -17.4921,-6.27772 -4.00136,-5.82915 -4.00136,-5.82915" /><path
     id="path4578"
     sodipodi:nodetypes="cacac"
     style="fill:#990000;stroke:#262316;stroke-width:2.52355719"
     inkscape:connector-curvature="0"
     d="m 162.94043,303.15404 c 0,0 10.30991,32.53763 24.13585,38.26517 14.94576,6.19011 53.46688,-8.41391 53.46688,-8.41391 0,0 -35.65823,-0.50997 -50.62941,-7.05505 -10.92914,-4.77743 -26.97302,-22.79568 -26.97302,-22.79568 z" /><ellipse
     id="path4580"
     style="fill:#000000;fill-opacity:0.99216003;stroke:#262316;stroke-width:2.52358818"
     transform="scale(-1,1)"
     cx="-162.51268"
     cy="262.11597"
     rx="10.343939"
     ry="9.5799599" /><ellipse
     id="path4658"
     style="opacity:0;stroke-width:0;filter:url(#filter4654)"
     transform="matrix(3.8074445,0,0,4.1106106,-1022.8374,-281.73041)"
     cx="298.45923"
     cy="140.92474"
     rx="6.3890357"
     ry="5.9326763" /><ellipse
     id="path4660"
     style="opacity:0.27805002;fill:#ff794b;stroke-width:0;filter:url(#filter4654)"
     transform="matrix(3.8074445,0,0,4.1106106,-849.29392,-254.74562)"
     cx="298.45923"
     cy="140.92474"
     rx="6.3890357"
     ry="5.9326763" /><ellipse
     id="path4666"
     style="opacity:0.27805002;fill:#ff794b;stroke-width:0;filter:url(#filter4654)"
     transform="matrix(3.8074445,0,0,4.1106106,-1014.8282,-269.46362)"
     cx="298.45923"
     cy="140.92474"
     rx="6.3890357"
     ry="5.9326763" /></svg>