<?xml version="1.0" encoding="UTF-8" standalone="no"?>
<!-- Created with Sodipodi ("http://www.sodipodi.com/") -->

<svg
   xmlns:dc="http://purl.org/dc/elements/1.1/"
   xmlns:cc="http://creativecommons.org/ns#"
   xmlns:rdf="http://www.w3.org/1999/02/22-rdf-syntax-ns#"
   xmlns:svg="http://www.w3.org/2000/svg"
   xmlns="http://www.w3.org/2000/svg"
   xmlns:xlink="http://www.w3.org/1999/xlink"
   xmlns:sodipodi="http://sodipodi.sourceforge.net/DTD/sodipodi-0.dtd"
   xmlns:inkscape="http://www.inkscape.org/namespaces/inkscape"
   id="svg690"
   sodipodi:version="0.32"
   width="800"
   height="520"
   xml:space="preserve"
   sodipodi:docname="man3.svg"
   inkscape:version="0.91 r"
   inkscape:output_extension="org.inkscape.output.svg.inkscape"
   version="1.0"><metadata
     id="metadata23"><rdf:RDF><cc:Work
         rdf:about=""><dc:format>image/svg+xml</dc:format><dc:type
           rdf:resource="http://purl.org/dc/dcmitype/StillImage" /><dc:title /></cc:Work></rdf:RDF></metadata><defs
     id="defs692"><inkscape:perspective
       sodipodi:type="inkscape:persp3d"
       inkscape:vp_x="0 : 526.18109 : 1"
       inkscape:vp_y="0 : 1000 : 0"
       inkscape:vp_z="744.09448 : 526.18109 : 1"
       inkscape:persp3d-origin="372.04724 : 350.78739 : 1"
       id="perspective25" /><linearGradient
       id="linearGradient705"><stop
         style="stop-color:#ffffff;stop-opacity:1;"
         offset="0"
         id="stop706" /><stop
         style="stop-color:#4c4c7a;stop-opacity:1;"
         offset="1"
         id="stop707" /></linearGradient><linearGradient
       id="linearGradient694"><stop
         style="stop-color:#c7f0ff;stop-opacity:1;"
         offset="0"
         id="stop695" /><stop
         style="stop-color:#ffffff;stop-opacity:1;"
         offset="1"
         id="stop696" /></linearGradient><linearGradient
       xlink:href="#linearGradient694"
       id="linearGradient697"
       x1="74.833076"
       y1="224.92026"
       x2="579.74213"
       y2="987.05554"
       gradientTransform="matrix(1.2403472,0,0,0.8062259,99.100189,-166.10214)"
       gradientUnits="userSpaceOnUse" /><linearGradient
       xlink:href="#linearGradient694"
       id="linearGradient700"
       x1="0.495"
       y1="0.9609375"
       x2="0.49000001"
       y2="-0.1796875" /><linearGradient
       xlink:href="#linearGradient694"
       id="linearGradient703"
       y2="572.83191"
       x2="201.4899"
       y1="52.162842"
       x1="645.30786"
       gradientTransform="scale(1.1616636,0.8608344)"
       gradientUnits="userSpaceOnUse" /><linearGradient
       xlink:href="#linearGradient694"
       id="linearGradient708"
       x1="183.00497"
       y1="837.26624"
       x2="177.1879"
       y2="346.11108"
       gradientTransform="matrix(2.2504214,0,0,0.4443612,99.100189,-166.10214)"
       gradientUnits="userSpaceOnUse" /><radialGradient
       xlink:href="#linearGradient705"
       id="radialGradient709"
       cx="459.01657"
       cy="291.24692"
       r="358.83459"
       fx="459.01657"
       fy="291.24692"
       gradientTransform="scale(1.1544482,0.8662147)"
       gradientUnits="userSpaceOnUse" /><linearGradient
       inkscape:collect="always"
       xlink:href="#linearGradient694"
       id="linearGradient2409"
       gradientUnits="userSpaceOnUse"
       gradientTransform="scale(1.1616636,0.8608344)"
       x1="645.30786"
       y1="52.162842"
       x2="201.4899"
       y2="572.83191" /><radialGradient
       inkscape:collect="always"
       xlink:href="#linearGradient705"
       id="radialGradient2411"
       gradientUnits="userSpaceOnUse"
       gradientTransform="scale(1.1544482,0.8662147)"
       cx="459.01657"
       cy="291.24692"
       fx="459.01657"
       fy="291.24692"
       r="358.83459" /><linearGradient
       inkscape:collect="always"
       xlink:href="#linearGradient694"
       id="linearGradient2413"
       gradientUnits="userSpaceOnUse"
       gradientTransform="matrix(2.2504214,0,0,0.4443612,99.100189,-166.10214)"
       x1="183.00497"
       y1="837.26624"
       x2="177.1879"
       y2="346.11108" /></defs><sodipodi:namedview
     id="base"
     showgrid="false"
     inkscape:zoom="0.33193016"
     inkscape:cx="341.58474"
     inkscape:cy="251.17823"
     inkscape:window-width="1355"
     inkscape:window-height="712"
     inkscape:window-x="0"
     inkscape:window-y="0"
     inkscape:current-layer="svg690"
     inkscape:window-maximized="1" /><path
     id="path5272-59"
     d="m 822.14001,501.72546 c 0,0 -1.13258,2.913 -0.198,4.12554 1.25602,1.62913 4.17941,3.27556 6.78401,2.91106 3.49419,-0.48907 5.92596,-3.57878 6.22463,-6.05071 0.26587,-2.19776 -1.65789,-4.59896 -4.16566,-5.94772 -3.17203,-1.7058 -11.7897,-1.65052 -11.7897,-1.65052"
     sodipodi:nodetypes="cssssc"
     style="fill:none;stroke:#5a4500;stroke-width:2.31412983"
     inkscape:connector-curvature="0" /><ellipse
     id="ellipse3095"
     style="fill:#ffcc99;fill-rule:evenodd;stroke:#1f1a17;stroke-width:2.75222659"
     ry="123.17233"
     cy="292.74353"
     rx="150.88568"
     class="fil1 str0"
     cx="426.32245" /><ellipse
     id="ellipse3097"
     style="fill:#000000;fill-rule:evenodd;stroke:#1f1a17;stroke-width:2.75222659"
     ry="24.19389"
     cy="259.74078"
     rx="16.001879"
     class="fil2 str0"
     cx="469.67331" /><ellipse
     id="ellipse3099"
     style="fill:#000000;fill-rule:evenodd;stroke:#1f1a17;stroke-width:2.75222659"
     ry="24.19389"
     cy="262.64288"
     rx="16.001879"
     class="fil2 str0"
     cx="384.37482" /><path
     id="path3101"
     d="m 245.86319,183.7179 360.89402,0 c 3.86378,0 7.01468,3.03162 7.01468,6.74912 l 0,6.14703 c 0,7.4348 -6.30202,13.4994 -14.02936,13.4994 l -346.85528,-0.001 c -7.72735,0 -14.02935,-6.06344 -14.02935,-13.49824 l 0,-6.14703 c 0,-3.7173 3.15111,-6.74912 7.01467,-6.74912 z"
     style="fill:#000000;fill-rule:evenodd;stroke:#1f1a17;stroke-width:2.75221682"
     inkscape:connector-curvature="0"
     class="fil2 str0" /><path
     id="path3103"
     d="m 352.62759,12.782792 137.36954,-1.684559 c 5.84174,-0.07154 10.89658,1.887035 15.05499,5.836561 4.15685,3.949622 6.25842,8.787306 6.25842,14.409238 l 0,135.462548 c 0,11.06171 -9.28032,20.10582 -20.776,20.2458 L 353.165,188.73694 c -5.84172,0.0716 -10.89523,-1.88837 -15.05364,-5.83792 -4.15686,-3.94963 -6.25842,-8.78731 -6.25842,-14.40788 l 0,-135.468382 c 0,-11.061703 9.27898,-20.10388 20.77465,-20.245799 z"
     style="fill:#000000;fill-rule:evenodd;stroke:#1f1a17;stroke-width:2.75221682"
     inkscape:connector-curvature="0"
     class="fil2 str0" /><path
     id="path3105"
     d="m 325.71411,288.34905 c 76.20265,109.97548 146.30918,111.44132 210.32182,4.3991"
     style="fill:none;stroke:#1f1a17;stroke-width:2.75221682"
     inkscape:connector-curvature="0"
     class="fil3 str0" /><g
     id="g3109"
     style="fill-rule:evenodd"
     transform="matrix(14.029352,0,0,13.498042,-1599.516,-451.68111)"><path
       id="path3111"
       d="m 143.77,65.994 0,1e-4 -7.0614,4.3996 0,-8.7993 7.0614,4.3996 z m -3.5307,2.1999 m -3.5307,-2.1999 m 3.5307,-2.1998"
       style="fill:#990000;fill-rule:nonzero;stroke:#1f1a17;stroke-width:0.2"
       inkscape:connector-curvature="0"
       class="fil10 str0" /><path
       id="path3113"
       d="m 145.01,66.145 0,1e-4 7.0614,4.3996 0,-8.8 -7.06,4.4 z m 3.5307,2.1999 m 3.5307,-2.1999 m -3.5307,-2.1998"
       style="fill:#990000;fill-rule:nonzero;stroke:#1f1a17;stroke-width:0.2"
       inkscape:connector-curvature="0"
       class="fil10 str0" /><rect
       id="rect3115"
       style="fill:none;stroke:#1f1a17;stroke-width:0.2"
       class="fil3 str0"
       height="0.3258"
       width="0.81452"
       y="67.689003"
       x="140.83" /><ellipse
       id="ellipse3117"
       style="fill:#990000;stroke:#1f1a17;stroke-width:0.2"
       cy="66.030998"
       rx="2.5801001"
       ry="1.6295"
       class="fil11 str0"
       cx="144.36" /></g></svg>