<?xml version="1.0" encoding="UTF-8" standalone="no"?>
<!-- Generator: Adobe Illustrator 14.0.0, SVG Export Plug-In . SVG Version: 6.00 Build 43363)  -->

<svg
   xmlns:dc="http://purl.org/dc/elements/1.1/"
   xmlns:cc="http://creativecommons.org/ns#"
   xmlns:rdf="http://www.w3.org/1999/02/22-rdf-syntax-ns#"
   xmlns:svg="http://www.w3.org/2000/svg"
   xmlns="http://www.w3.org/2000/svg"
   xmlns:sodipodi="http://sodipodi.sourceforge.net/DTD/sodipodi-0.dtd"
   xmlns:inkscape="http://www.inkscape.org/namespaces/inkscape"
   version="1.1"
   id="svg2"
   inkscape:version="0.91 r13725"
   sodipodi:docname="ledOn.svg"
   x="0px"
   y="0px"
   width="195.31413"
   height="739.37402"
   viewBox="0 0 195.31413 739.37402"
   enable-background="new 0 0 800 600"
   xml:space="preserve"><metadata
     id="metadata23"><rdf:RDF><cc:Work
         rdf:about=""><dc:format>image/svg+xml</dc:format><dc:type
           rdf:resource="http://purl.org/dc/dcmitype/StillImage" /><dc:title></dc:title></cc:Work></rdf:RDF></metadata><defs
     id="defs21" /><sodipodi:namedview
     inkscape:document-units="px"
     inkscape:pageopacity="0.0"
     inkscape:window-width="1280"
     inkscape:cy="421.68982"
     inkscape:cx="84.87106"
     showgrid="false"
     inkscape:window-x="0"
     inkscape:zoom="0.64"
     inkscape:pageshadow="2"
     bordercolor="#666666"
     inkscape:window-height="696"
     pagecolor="#ffffff"
     inkscape:current-layer="layer1"
     inkscape:window-y="0"
     borderopacity="1.0"
     id="base"
     inkscape:window-maximized="0"
     showborder="true"
     borderlayer="false"
     fit-margin-top="0"
     fit-margin-left="0"
     fit-margin-right="0"
     fit-margin-bottom="0" /><g
     id="layer1"
     inkscape:groupmode="layer"
     inkscape:label="Layer 1"
     transform="translate(-316.26531,-47.809417)"><radialGradient
       id="path2991_1_"
       cx="341.95209"
       cy="119.9434"
       r="91.143997"
       gradientTransform="matrix(0.0431,1.2342,2.2046,-0.077,127.3611,-352.7568)"
       gradientUnits="userSpaceOnUse"><stop
         offset="0"
         style="stop-color:#FFFFFF"
         id="stop9" /><stop
         offset="1"
         style="stop-color:#FFFFFF;stop-opacity:0"
         id="stop11" /></radialGradient><radialGradient
       id="path3796_1_"
       cx="678.49219"
       cy="157.2773"
       r="96.047401"
       gradientTransform="matrix(-1.3948,1.3422,1.1419,1.2976,844.50639,-992.81142)"
       gradientUnits="userSpaceOnUse"><stop
         offset="0"
         style="stop-color:#FF0000"
         id="stop16" /><stop
         offset="1"
         style="stop-color:#FF0000;stop-opacity:0"
         id="stop18" /></radialGradient><path
       d="m 352.57617,204.14844 1.18164,40.60547 19.94727,16.35351 -2.9668,14.47852 -23.21875,16.76172 -5.16015,26.39453 29.8789,8.44531 1.77734,2.91211 1.03321,28.15039 c 2.37372,-0.4019 3.64281,-0.77869 4.39258,-1.08398 0.0423,-0.39045 0.0927,-0.78032 0.15429,-1.17188 0.46355,-2.94917 3.59584,-2.52071 7.27149,-1.50976 2.86558,-0.33392 5.745,-0.40656 8.625,-0.37891 l -0.36328,-25.88867 9.51171,-22.29102 -0.0879,-32.16797 16.7461,-6.41406 -49.22656,-33.2832 -0.83594,-28.76172 -18.66016,-1.15039 z m 39.45899,151.0625 c -0.0636,0.009 -0.0262,0.0472 0.14843,0.125 0.99025,0.4412 2.15772,0.65384 3.33789,0.84375 l -0.002,-0.15039 c -1.32162,-0.40395 -3.22802,-0.85556 -3.48437,-0.81836 z"
       id="path2472"
       inkscape:connector-curvature="0" /><path
       d="m 480.41602,203.81641 -98.07813,4.54297 1.45899,21.125 49.00585,25.66796 2.34375,51.57813 15.25196,0.4043 1.16601,10.97265 1.11524,34.98438 c 14.02327,-2.11174 6.2474,-2.48812 14.87695,-0.46485 0.3694,0.0866 -1.39872,-0.3998 -1.0293,-0.48633 0.23533,-0.0551 0.48017,-0.0466 0.72071,-0.0703 1.39713,-0.10092 0.81898,-0.0614 1.74023,-0.12304 2.31189,-0.15466 4.49277,-0.1606 6.55664,-0.0449 l -0.14844,-29.4082 21.89649,-4.02344 -0.41797,-14.3789 -29.14453,-41.48633 11.42383,-14.72461 1.26172,-44.06445 z"
       id="path2474"
       inkscape:connector-curvature="0" /><path
       id="path2470"
       sodipodi:nodetypes="cccccscccc"
       inkscape:connector-curvature="0"
       enable-background="new    "
       d="m 510.539,336.083 c 0,0 -52.69,24.391 -192.064,6.427 -1.938,-8.41 -1.123,-37.28 -1.123,-37.28 l 12.57,-4.458 c 0,0 -1.541,-173.41 0.74,-188.04 -2.071,-18.734 34.562,-63.227 75.188,-63.991 54.141,-1.015 81.22,49.819 80.268,52.7 6.21,16.22 12.679,196.505 12.679,196.505 l 10.856,2.972 0.885,35.16 10e-4,0.005 z"
       style="opacity:0.78969996;fill:#ff0000;stroke:#ffffff;stroke-width:1.83319998" /><path
       id="path2991"
       sodipodi:nodetypes="cccccscccc"
       inkscape:connector-curvature="0"
       d="m 509.336,335.416 c 0,0 -51.707,24.181 -188.506,6.316 -1.904,-8.344 -1.114,-36.984 -1.114,-36.984 l 12.336,-4.42 c 0,0 -1.566,-172.035 0.668,-186.545 -2.039,-18.586 33.903,-62.719 73.774,-63.46 53.139,-0.99 79.732,49.449 78.797,52.307 6.101,16.093 12.506,194.955 12.506,194.955 l 10.655,2.951 0.88,34.883 0.004,-0.003 z"
       style="fill:url(#path2991_1_)" /><path
       id="path2480"
       sodipodi:nodetypes="cscczcc"
       inkscape:connector-curvature="0"
       enable-background="new    "
       d="m 328.806,303.746 c 0,0 -3.463,0.477 -5.044,1.033 l -5.036,1.775 c 0,0 94.322,13.87 191.158,-4.184 l -1.522,-0.513 c -1.743,-0.588 -5.685,-1.552 -6.896,-1.966 l -172.662,3.854 0.002,0 z"
       style="opacity:0.5952;fill:#cccccc;fill-opacity:0.62239996;stroke:#cccccc;stroke-width:1.83319998;stroke-linecap:round;stroke-linejoin:round" /><rect
       style="opacity:1;fill:#090909;fill-opacity:0.80392157;stroke:none;stroke-width:1.19475627;stroke-miterlimit:3.54999995;stroke-dasharray:none;stroke-opacity:0.96688741"
       id="rect4312"
       width="13.097"
       height="362.76208"
       x="374.33774"
       y="346.86526" /><rect
       style="fill:#ffffff"
       id="rect3429"
       width="10.550105"
       height="11.405519"
       x="387.48041"
       y="348.07239" /><rect
       style="fill:#ffffff"
       id="rect3429-1"
       width="10.550105"
       height="11.405519"
       x="450.63846"
       y="346.64673" /><rect
       style="opacity:1;fill:#090909;fill-opacity:0.80392157;stroke:none;stroke-width:1.24041164;stroke-miterlimit:3.54999995;stroke-dasharray:none;stroke-opacity:0.96688741"
       id="rect4312-3"
       width="13.097"
       height="182.07277"
       x="461.3089"
       y="344.4776" /><circle
       style="opacity:0.64899998;fill:#000000;fill-opacity:0.93377482;stroke:none;stroke-width:4.15100002;stroke-miterlimit:3.54999995;stroke-dasharray:none;stroke-opacity:0.05298013"
       id="path5637-5"
       cx="467.88931"
       cy="563.52844"
       r="40.942001" /><circle
       style="opacity:0.64899998;fill:#000000;fill-opacity:0.93377482;stroke:none;stroke-width:4.15100002;stroke-miterlimit:3.54999995;stroke-dasharray:none;stroke-opacity:0.05298013"
       id="path5637-5-0"
       cx="378.5043"
       cy="746.24146"
       r="40.942001" /><rect
       style="fill:#ffffff"
       id="rect3429-1-4"
       width="10.550105"
       height="11.405519"
       x="474.4389"
       y="344.06525" /></g></svg>