<?xml version="1.0" encoding="UTF-8" standalone="no"?>
<!-- Generator: Adobe Illustrator 14.0.0, SVG Export Plug-In . SVG Version: 6.00 Build 43363)  -->

<svg
   xmlns:dc="http://purl.org/dc/elements/1.1/"
   xmlns:cc="http://creativecommons.org/ns#"
   xmlns:rdf="http://www.w3.org/1999/02/22-rdf-syntax-ns#"
   xmlns:svg="http://www.w3.org/2000/svg"
   xmlns="http://www.w3.org/2000/svg"
   xmlns:sodipodi="http://sodipodi.sourceforge.net/DTD/sodipodi-0.dtd"
   xmlns:inkscape="http://www.inkscape.org/namespaces/inkscape"
   version="1.1"
   id="svg2"
   inkscape:version="0.91 r13725"
   sodipodi:docname="ledOff.svg"
   x="0px"
   y="0px"
   width="195.31413"
   height="661.88861"
   viewBox="0 0 195.31412 661.88861"
   enable-background="new 0 0 800 600"
   xml:space="preserve"><metadata
     id="metadata17"><rdf:RDF><cc:Work
         rdf:about=""><dc:format>image/svg+xml</dc:format><dc:type
           rdf:resource="http://purl.org/dc/dcmitype/StillImage" /><dc:title></dc:title></cc:Work></rdf:RDF></metadata><defs
     id="defs15" /><sodipodi:namedview
     inkscape:document-units="px"
     inkscape:pageopacity="0.0"
     inkscape:window-width="1280"
     inkscape:cy="335.2686"
     inkscape:cx="56.834075"
     showgrid="false"
     inkscape:window-x="69"
     inkscape:zoom="0.61996894"
     inkscape:pageshadow="2"
     bordercolor="#666666"
     inkscape:window-height="696"
     pagecolor="#ffffff"
     inkscape:current-layer="layer1"
     inkscape:window-y="23"
     borderopacity="1.0"
     id="base"
     inkscape:window-maximized="0"
     fit-margin-top="0"
     fit-margin-left="0"
     fit-margin-right="0"
     fit-margin-bottom="0"
     showborder="true" /><g
     id="layer1"
     inkscape:groupmode="layer"
     inkscape:label="Layer 1"
     transform="translate(-316.26531,-47.809417)"><radialGradient
       id="path2991_1_"
       cx="341.7334"
       cy="119.9224"
       r="91.143898"
       gradientTransform="matrix(0.0431,1.2342,2.2046,-0.077,127.4315,-352.4904)"
       gradientUnits="userSpaceOnUse"><stop
         offset="0"
         style="stop-color:#FFFFFF"
         id="stop9" /><stop
         offset="1"
         style="stop-color:#FFFFFF;stop-opacity:0"
         id="stop11" /></radialGradient><g
       id="g4377"><path
         inkscape:connector-curvature="0"
         id="path2472"
         d="m 352.57617,204.14844 1.18164,40.60547 19.94727,16.35351 -2.9668,14.47852 -23.21875,16.76172 -5.16015,26.39453 29.8789,8.44531 1.77734,2.91211 0.99219,27.07422 c 0.0803,-0.0429 0.16408,-0.0851 0.24219,-0.12695 -0.0139,-0.003 -0.0356,-10e-4 -0.0488,-0.004 -0.32443,-0.0693 0.23831,-0.27861 0.85547,-0.41992 1.96379,-1.03844 3.41621,-1.67334 6.14648,-1.62891 0.0631,-1.06491 0.0995,-1.90651 0.17383,-3.07422 0.10359,-1.6277 1.85173,-1.32772 3.90821,-0.7207 0.6556,-0.0851 1.11628,-0.14846 2.07226,-0.27539 2.35764,-0.44737 4.72373,-0.28272 7.08789,-0.16602 l -0.3164,-22.54101 9.51171,-22.29102 -0.0879,-32.16797 16.7461,-6.41406 -49.22656,-33.2832 -0.83594,-28.76172 -18.66016,-1.15039 z m 37.87695,148.20508 c 0.37653,0.0627 0.73571,0.10239 1.0586,0.0937 0.81967,-0.022 0.0725,-0.0379 -1.0586,-0.0937 z m 2.30274,2.08789 c -0.0725,0.0168 -0.14414,0.0366 -0.2168,0.0527 0.59568,0.11637 0.86404,0.15065 0.2168,-0.0527 z m -10.62109,1.77148 c -1.0304,0.23526 -2.05938,0.48543 -3.09375,0.67383 -0.005,0.009 -0.009,0.0196 -0.0137,0.0293 0.003,0.005 -10e-4,0.0119 -0.01,0.0195 -0.30911,0.63899 -0.8369,1.67638 -1.58008,3.17578 0.92467,0.72305 1.79717,1.52753 2.73047,2.28906 3.1751,2.09136 -2.57295,-2.15106 -2.11719,-2.01953 1.28785,0.37166 2.53209,0.87946 3.79688,1.32422 1e-4,-0.003 -1.1e-4,-0.005 0,-0.008 -0.32219,-0.12427 -0.46203,-0.19087 -0.70118,-0.26172 0.22418,-0.0543 0.46373,-0.0947 0.71485,-0.12305 0.0619,-1.47701 0.17358,-3.34511 0.27344,-5.09961 z m -3.11719,0.72266 c 0.003,-0.007 0.007,-0.013 0.01,-0.0195 -0.005,-0.008 -0.0363,-0.009 -0.0664,-0.0117 -0.0326,0.006 -0.0651,0.0139 -0.0977,0.0195 0.009,-0.0136 0.009,-0.0142 0.0176,-0.0274 -0.54667,0.0142 -2.34011,0.2613 -3.3457,0.17969 -0.13095,0.006 -0.26349,0.007 -0.38282,0.0312 -0.0475,0.0247 -0.0781,0.0408 -0.14257,0.0742 l 0.0254,0.74219 c 1.28685,-0.22092 2.56353,-0.47673 3.79492,-0.90235 0.12135,-0.0419 0.16423,-0.0656 0.1875,-0.0859 z" /><path
         inkscape:connector-curvature="0"
         id="path2474"
         d="m 480.41602,203.81641 -98.07813,4.54297 1.45899,21.125 49.00585,25.66796 2.34375,51.57813 15.25196,0.4043 1.16601,10.97265 1.17774,36.92383 c 0.39672,0.0642 0.79526,0.12062 1.1914,0.1875 0.4128,0.0697 0.81307,0.192 1.21485,0.3125 0.064,-0.006 0.12286,-0.008 0.19336,-0.0117 1.15267,-0.66413 3.01079,-0.94567 4.19922,-1.45312 1.92848,-0.82345 3.94359,-1.14894 5.97851,-1.22852 0.1912,-0.0955 0.38228,-0.19221 0.58008,-0.27539 2.99221,-1.2583 6.33318,-0.89996 9.44531,-0.60547 l -0.14844,-29.46289 21.89649,-4.02344 -0.41797,-14.3789 -29.14453,-41.48633 11.42383,-14.72461 1.26172,-44.06445 z" /><path
         style="opacity:0.78969996;fill:#800000;stroke:#ffffff;stroke-width:1.83319998"
         d="m 510.539,336.083 c 0,0 -52.69,24.391 -192.064,6.427 -1.938,-8.41 -1.123,-37.28 -1.123,-37.28 l 12.57,-4.458 c 0,0 -1.541,-173.41 0.74,-188.04 -2.071,-18.734 34.562,-63.227 75.188,-63.991 54.141,-1.015 81.22,49.819 80.268,52.7 6.21,16.22 12.679,196.505 12.679,196.505 l 10.856,2.972 0.885,35.16 10e-4,0.005 z"
         enable-background="new    "
         inkscape:connector-curvature="0"
         sodipodi:nodetypes="cccccscccc"
         id="path2470" /><path
         style="fill:url(#path2991_1_)"
         d="m 509.336,335.416 c 0,0 -51.707,24.181 -188.506,6.316 -1.904,-8.344 -1.114,-36.984 -1.114,-36.984 l 12.336,-4.42 c 0,0 -1.566,-172.035 0.668,-186.545 -2.039,-18.586 33.903,-62.719 73.774,-63.46 53.139,-0.99 79.732,49.449 78.797,52.307 6.101,16.093 12.506,194.955 12.506,194.955 l 10.655,2.951 0.88,34.883 0.004,-0.003 z"
         inkscape:connector-curvature="0"
         sodipodi:nodetypes="cccccscccc"
         id="path2991" /><path
         style="opacity:0.5952;fill:#cccccc;fill-opacity:0.62239996;stroke:#cccccc;stroke-width:1.83319998;stroke-linecap:round;stroke-linejoin:round"
         d="m 328.806,303.746 c 0,0 -3.463,0.477 -5.044,1.033 l -5.036,1.775 c 0,0 94.322,13.87 191.158,-4.184 l -1.522,-0.513 c -1.743,-0.588 -5.685,-1.552 -6.896,-1.966 l -172.662,3.854 0.002,0 z"
         enable-background="new    "
         inkscape:connector-curvature="0"
         sodipodi:nodetypes="cscczcc"
         id="path2480" /><rect
         y="346.92535"
         x="374.40714"
         height="362.77264"
         width="21.081245"
         id="rect4312"
         style="opacity:1;fill:#090909;fill-opacity:0.80392157;stroke:none;stroke-width:1.19475627;stroke-miterlimit:3.54999995;stroke-dasharray:none;stroke-opacity:0.96688741" /><rect
         y="344.84784"
         x="452.87872"
         height="182.07277"
         width="22.735586"
         id="rect4312-3"
         style="opacity:1;fill:#090909;fill-opacity:0.80392157;stroke:none;stroke-width:1.24041164;stroke-miterlimit:3.54999995;stroke-dasharray:none;stroke-opacity:0.96688741" /></g></g></svg>