<?xml version="1.0" encoding="UTF-8" standalone="no"?>
<!-- Created with Inkscape (http://www.inkscape.org/) -->

<svg
   xmlns:dc="http://purl.org/dc/elements/1.1/"
   xmlns:cc="http://creativecommons.org/ns#"
   xmlns:rdf="http://www.w3.org/1999/02/22-rdf-syntax-ns#"
   xmlns:svg="http://www.w3.org/2000/svg"
   xmlns="http://www.w3.org/2000/svg"
   xmlns:sodipodi="http://sodipodi.sourceforge.net/DTD/sodipodi-0.dtd"
   xmlns:inkscape="http://www.inkscape.org/namespaces/inkscape"
   id="svg5444"
   sodipodi:docname="alphabetical_order.svg"
   viewBox="0 0 100 99.999999"
   version="1.1"
   inkscape:version="0.91 r13725"
   width="100"
   height="100">
  <sodipodi:namedview
     id="base"
     bordercolor="#666666"
     inkscape:pageshadow="2"
     inkscape:window-y="21"
     pagecolor="#ffffff"
     inkscape:window-height="1029"
     inkscape:window-maximized="1"
     inkscape:zoom="7.9825217"
     inkscape:window-x="57"
     showgrid="false"
     borderopacity="1.0"
     inkscape:current-layer="layer1"
     inkscape:cx="53.088814"
     inkscape:cy="54.889136"
     inkscape:window-width="1623"
     inkscape:pageopacity="0.0"
     inkscape:document-units="px"
     fit-margin-top="0"
     fit-margin-left="0"
     fit-margin-right="0"
     fit-margin-bottom="0" />
  <defs
     id="defs5446">
    <linearGradient
       id="linearGradient8885"
       y2="335.09"
       gradientUnits="userSpaceOnUse"
       x2="411.64001"
       gradientTransform="matrix(-0.96884,-0.24771,0.24771,-0.96884,1228.8,801.16)"
       y1="330.39001"
       x1="412.44"
       inkscape:collect="always">
      <stop
         id="stop7104-5"
         style="stop-color:#b8b8b8"
         offset="0" />
      <stop
         id="stop7110-4"
         style="stop-color:#e3e3e3"
         offset=".5" />
      <stop
         id="stop7106-1"
         style="stop-color:#b9b9b9"
         offset="1" />
    </linearGradient>
    <linearGradient
       id="linearGradient8888"
       y2="335.09"
       gradientUnits="userSpaceOnUse"
       x2="411.64001"
       gradientTransform="matrix(0.90747,-0.42013,0.42013,0.90747,384.27,248.55)"
       y1="330.39001"
       x1="412.44"
       inkscape:collect="always">
      <stop
         id="stop7104-7"
         style="stop-color:#b8b8b8"
         offset="0" />
      <stop
         id="stop7110-8"
         style="stop-color:#e3e3e3"
         offset=".5" />
      <stop
         id="stop7106-8"
         style="stop-color:#b9b9b9"
         offset="1" />
    </linearGradient>
    <linearGradient
       id="linearGradient8891"
       y2="335.09"
       gradientUnits="userSpaceOnUse"
       x2="411.64001"
       gradientTransform="translate(480.76,44.468)"
       y1="330.39001"
       x1="412.44"
       inkscape:collect="always">
      <stop
         id="stop7104"
         style="stop-color:#b8b8b8"
         offset="0" />
      <stop
         id="stop7110"
         style="stop-color:#e3e3e3"
         offset=".5" />
      <stop
         id="stop7106"
         style="stop-color:#b9b9b9"
         offset="1" />
    </linearGradient>
    <linearGradient
       id="linearGradient8895"
       y2="130.07001"
       gradientUnits="userSpaceOnUse"
       x2="569.34998"
       gradientTransform="matrix(1,0,0,1.0086,339.28,143.92)"
       y1="286.38"
       x1="125.89"
       inkscape:collect="always">
      <stop
         id="stop7035"
         style="stop-color:#867850"
         offset="0" />
      <stop
         id="stop7041"
         style="stop-color:#a08872"
         offset=".35474" />
      <stop
         id="stop7037"
         style="stop-color:#867850"
         offset="1" />
    </linearGradient>
  </defs>
  <g
     id="layer1"
     inkscape:label="Layer 1"
     transform="translate(-579.77943,-402.39135)"
     inkscape:groupmode="layer">
    <g
       id="g4171"
       transform="matrix(0.19837605,0,0,0.19837605,464.76508,395.72237)">
      <path
         id="path8684-3"
         sodipodi:nodetypes="cccccccccccs"
         style="fill:#685b49;stroke:#30302c;stroke-width:0.2"
         d="m 1050.5,235.88 c 3.4106,0.0725 9.0449,4.575 9.0449,4.575 l -0.5321,186.56 c 0,0 15.669,6.8016 22.878,9.1499 2.8788,7.6335 1.5962,16.267 1.5962,16.267 l -12.769,-2.5416 c -13.698,-13.587 -27.98,-18.252 -43.096,-10.167 l -12.769,-2.0333 c 0,0 1.066,-9.6281 5.3205,-13.217 8.0277,-1.8662 20.218,-1e-5 20.218,-1e-5 l 0,-184.02 c 0,0 6.3812,-4.6542 10.109,-4.575 z"
         inkscape:connector-curvature="0" />
      <path
         id="rect5454-4"
         sodipodi:nodetypes="cccccccccc"
         style="color:#000000;fill:#736e55;stroke:#777777;stroke-width:0.2;stroke-linejoin:round"
         d="m 630.82,398.97 413.52,-17.231 c 1.429,-0.0596 2.5728,-1.8475 2.5672,-4.009 l -0.6218,-241.59 c -0.01,-2.1646 -1.1596,-4.0646 -2.5903,-4.2603 0,0 -409.53,-57.64 -409.53,-57.64 -3.3993,0.28087 -8.9187,2.6645 -8.908,5.4817 l 1.1993,314.35 c 0.0107,2.8119 1.9592,4.9948 4.3629,4.8947"
         inkscape:connector-curvature="0" />
      <path
         id="rect5454"
         style="color:#000000;fill:url(#linearGradient8895);stroke:#777777;stroke-width:0.2;stroke-linejoin:round"
         d="m 636.6,399.29 413.52,-17.305 c 1.429,-0.0598 2.5728,-1.8554 2.5672,-4.0262 l -0.6218,-242.62 c -0.01,-2.1739 -1.1596,-4.0819 -2.5903,-4.2785 l -414.11,-56.89 c -2.4077,-0.33077 -4.342,1.68 -4.3313,4.5093 l 1.1993,315.7 c 0.0107,2.824 1.9592,5.0162 4.3629,4.9156"
         inkscape:connector-curvature="0" />
      <path
         id="rect5454-1"
         style="color:#000000;fill:#444444;stroke:#777777;stroke-width:0.2;stroke-linejoin:round"
         d="m 653.93,383.37 384.32,-11.556 c 1.4147,-0.0426 2.5465,-1.8831 2.5405,-4.127 l -0.575,-217.35 c -0.01,-2.2471 -1.1487,-4.2182 -2.565,-4.42 0,0 -384.86,-54.83 -384.86,-54.83 -2.3772,-0.33867 -4.2866,1.7397 -4.2752,4.6608 l 1.1068,282.49 c 0.0114,2.9157 1.9361,5.2053 4.3095,5.134"
         inkscape:connector-curvature="0" />
      <path
         id="rect7048-4"
         sodipodi:nodetypes="ccccc"
         style="color:#000000;fill:url(#linearGradient8891);stroke:#858585;stroke-width:0.1;stroke-linejoin:round"
         d="m 878.42,372.7 30.171,3.838 -0.79998,5.4618 -30.018,-4.881 0.64721,-4.4188 z"
         inkscape:connector-curvature="0" />
      <path
         id="rect7048-4-2"
         sodipodi:nodetypes="ccccc"
         style="color:#000000;fill:url(#linearGradient8888);stroke:#858585;stroke-width:0.1;stroke-linejoin:round"
         d="m 883.03,379.34 28.991,-9.1927 1.5687,5.2925 -29.291,8.1821 -1.2691,-4.2818 z"
         inkscape:connector-curvature="0" />
      <path
         id="rect7048-4-27"
         sodipodi:nodetypes="ccccc"
         style="color:#000000;fill:url(#linearGradient8885);stroke:#858585;stroke-width:0.1;stroke-linejoin:round"
         d="m 924.85,384.65 -28.28,-11.192 2.128,-5.0934 27.873,12.165 -1.7216,4.1208 z"
         inkscape:connector-curvature="0" />
      <path
         id="rect7204"
         style="color:#000000;fill:#493a3d;stroke:#858585;stroke-width:0.1;stroke-linejoin:round"
         d="m 732.12,376.09 37.614,1.597 -0.50501,11.894 -37.614,-1.597 0.50501,-11.894 z"
         inkscape:connector-curvature="0" />
      <path
         id="path8684-6"
         sodipodi:nodetypes="cccccccscccccs"
         style="fill:#635348;stroke:#2a302c;stroke-width:0.2"
         d="m 630.97,206.62 c 4.4385,0.0988 11.771,6.2317 11.771,6.2317 l -0.69241,254.11 c 0,0 20.391,9.2646 29.774,12.463 3.7465,10.398 2.0772,22.157 2.0772,22.157 l -4.9558,0.61612 -11.662,-4.0782 c -8.9134,-9.2537 -22.655,-15.665 -33.163,-17.645 -10.508,-1.9805 -12.751,-0.64802 -22.14,3.3501 l -5.2174,1.1423 c 0,0 -10.796,-16.58 -5.2587,-21.467 10.447,-2.542 26.312,-1e-5 26.312,-1e-5 l 0,-250.65 c 0,0 8.3046,-6.3397 13.156,-6.2317 z"
         inkscape:connector-curvature="0" />
      <path
         id="path8684"
         sodipodi:nodetypes="cccccccccccs"
         style="fill:#736e55;stroke:#30302c;stroke-width:0.2"
         d="m 626.28,207.31 c 4.4385,0.0988 11.771,6.2317 11.771,6.2317 l -0.69241,254.11 c 0,0 20.391,9.2646 29.774,12.463 3.7465,10.398 2.0772,22.157 2.0772,22.157 l -16.618,-3.462 c -17.827,-18.507 -36.413,-24.862 -56.085,-13.848 l -16.618,-2.7696 c 0,0 1.3872,-13.115 6.9241,-18.003 10.447,-2.542 26.312,-10e-6 26.312,-10e-6 l 0,-250.65 c 0,0 8.3046,-6.3397 13.156,-6.2317 z"
         inkscape:connector-curvature="0" />
      <ellipse
         id="path8708"
         style="color:#000000;fill:#635348;stroke:#2a302c;stroke-width:0.2;stroke-linecap:round;stroke-linejoin:round"
         cx="625.93372"
         cy="240.89474"
         rx="3.8082516"
         ry="5.8854799" />
      <path
         id="rect8757"
         sodipodi:nodetypes="ccccc"
         style="color:#000000;fill:#685b49"
         d="m 725.53,378.34 6.4817,-2.4228 -0.10923,12.681 -6.4817,-0.11396 0.1092,-10.145 z"
         inkscape:connector-curvature="0" />
      <path
         id="path8753"
         sodipodi:nodetypes="ccccc"
         style="fill:#685b49;stroke:#6e5739;stroke-width:3.9000001"
         d="m 1047.7,381.62 -7.9708,-2.5171 -389.73,12.585 13.424,5.0342 384.27,-15.102 z"
         inkscape:connector-curvature="0" />
      <g
         transform="matrix(0.80104678,0.10203023,-0.09500785,0.86025514,345.55667,74.805647)"
         id="g4345">
        <path
           d="M 423.22104,141.47408 494.95461,0.74759139 566.84705,141.47408 l -33.64248,7.30841 -14.33876,-29.90885 -49.29201,0 -12.67054,30.26632 -33.68222,-7.66588 z m 84.08636,-50.284992 -13.34578,-29.432212 -12.98831,29.432212 26.33409,0 z"
           style="font-style:normal;font-variant:normal;font-weight:normal;font-stretch:normal;font-size:medium;line-height:125%;font-family:Kabel;-inkscape-font-specification:Kabel;letter-spacing:0px;word-spacing:0px;fill:#833527;fill-opacity:1;stroke:none;stroke-width:1px;stroke-linecap:butt;stroke-linejoin:miter;stroke-opacity:1"
           id="path6377"
           inkscape:connector-curvature="0" />
        <path
           sodipodi:nodetypes="cccccccccccc"
           d="m 431.20095,139.02128 64.06738,-125.550919 64.42227,124.456869 -24.01558,5.13794 -14.0839,-29.23829 -54.80147,-0.75877 -14.04301,29.94869 z m 83.8707,-42.697208 -21.26687,-43.63725 -21.06627,43.513728 z"
           style="font-style:normal;font-variant:normal;font-weight:normal;font-stretch:normal;font-size:medium;line-height:125%;font-family:Kabel;-inkscape-font-specification:Kabel;letter-spacing:0px;word-spacing:0px;fill:#dd5d46;fill-opacity:1;stroke:none;stroke-width:1px;stroke-linecap:butt;stroke-linejoin:miter;stroke-opacity:1"
           id="path6377-5"
           inkscape:connector-curvature="0" />
      </g>
      <g
         transform="matrix(0.79126894,-0.25283941,0.24094854,0.83031828,337.62933,380.41213)"
         id="g4349">
        <path
           d="m 623.9312,143.32017 -52.50348,-9.43428 22.33777,-128.7137852 38.46935,6.6762112 q 23.71557,4.11574 35.96863,12.490765 12.08974,8.386998 10.19622,27.892528 -0.0875,1.436017 -0.31209,2.727457 -1.33803,7.709511 -5.51821,12.748852 -5.00336,6.065582 -9.40743,8.4457 -4.54865,2.516296 -6.7858,3.095562 0.40854,0.433726 5.16192,4.403092 4.57652,4.059612 8.20121,10.816277 3.44098,6.886051 2.51186,15.956541 -0.1762,1.94476 -0.509,3.86236 -1.77946,10.25326 -7.39504,17.05917 -6.8776,8.03817 -17.43033,11.00407 -10.77558,3.08847 -22.98558,0.96948 z m -2.93421,-55.335301 -8.17914,-1.41945 -4.67266,26.924611 9.47057,1.64359 q 9.9402,1.72508 15.0128,-1.02279 4.58777,-2.5095 5.64049,-8.57538 0.0875,-0.50877 0.16981,-0.97836 1.09318,-7.227936 -3.19068,-11.115814 -4.46752,-3.758496 -14.25117,-5.4564 z m 8.52966,-51.007615 -7.86607,-1.365124 -4.50286,25.946247 8.17913,1.41947 q 6.73116,1.168151 12.36685,-1.804493 4.77147,-2.638876 5.74947,-8.274263 0.13618,-0.78269 0.27166,-1.56538 0.56402,-7.198837 -3.19715,-10.149417 -3.95681,-2.984537 -11.00103,-4.20704 z"
           style="font-style:normal;font-variant:normal;font-weight:normal;font-stretch:normal;font-size:medium;line-height:125%;font-family:Kabel;-inkscape-font-specification:Kabel;letter-spacing:0px;word-spacing:0px;fill:#836227;fill-opacity:1;stroke:none;stroke-width:1px;stroke-linecap:butt;stroke-linejoin:miter;stroke-opacity:1"
           id="path6379"
           inkscape:connector-curvature="0" />
        <path
           inkscape:connector-curvature="0"
           id="path6379-9"
           d="m 624.46985,137.10925 c -15.84092,-2.84644 -31.68182,-5.69287 -47.52272,-8.5393 6.73956,-38.834443 13.47912,-77.668884 20.21869,-116.503326 16.08836,3.051255 32.41757,4.995141 48.28927,9.084872 9.19269,2.706323 19.416,6.090688 24.94914,14.476134 4.61432,7.862462 3.59075,17.776624 0.63127,26.01858 -5.00648,8.642571 -14.67005,13.224554 -23.70319,16.538305 7.67824,6.169748 16.65747,12.542039 19.47411,22.483425 1.8479,12.39547 -2.65155,27.0268 -14.61809,32.78091 -8.42611,4.48379 -18.42527,5.28829 -27.71842,3.6604 z M 608.00438,80.840416 c -2.16916,12.146482 -4.33829,24.292974 -6.50746,36.439464 10.97875,1.39739 22.12991,3.86404 33.2137,2.23345 6.93993,-1.86594 10.23837,-9.99275 9.69604,-16.67551 -0.29111,-5.669268 -2.40341,-11.555775 -7.42447,-14.70055 -8.39217,-5.983681 -19.14033,-6.174263 -28.97781,-7.296854 z m 8.13246,-51.090674 c -2.07206,11.804214 -4.1442,23.608395 -6.21625,35.412609 9.47657,1.327102 19.31111,3.309441 28.78865,1.085204 6.67112,-2.169142 11.35306,-8.895044 10.77004,-15.954462 -0.27249,-6.030733 -2.31404,-13.086114 -8.45704,-15.564076 -7.73882,-3.7674 -16.53598,-3.783139 -24.8854,-4.979275 z"
           style="font-style:normal;font-variant:normal;font-weight:normal;font-stretch:normal;font-size:medium;line-height:125%;font-family:Kabel;-inkscape-font-specification:Kabel;letter-spacing:0px;word-spacing:0px;fill:#e3b25a;fill-opacity:1;stroke:none;stroke-width:1px;stroke-linecap:butt;stroke-linejoin:miter;stroke-opacity:1" />
      </g>
      <g
         transform="matrix(0.74131533,0.11253265,-0.12077462,0.79560974,417.02814,46.997799)"
         id="g4353">
        <path
           d="m 778.43151,23.814744 9.50341,36.421418 q -11.92737,-8.647771 -26.33371,-7.023166 -16.65608,1.878323 -26.70636,14.483466 -9.5906,12.073667 -7.82356,27.743019 0.0889,0.789386 0.18245,1.618246 2.80777,16.391393 15.91477,24.866173 11.85615,8.01627 25.59151,6.46733 1.30245,-0.14686 2.58717,-0.45163 13.93983,-2.57129 23.12147,-12.60026 l -0.98442,36.28509 q -8.42215,5.06681 -16.28429,6.59298 -4.13036,0.94543 -8.1957,1.40389 -11.13036,1.25518 -22.05147,-0.95078 -14.71642,-2.89714 -26.84112,-11.52268 -12.06744,-8.4721 -19.38664,-20.91718 -7.41536,-12.2344 -9.03997,-26.640738 -1.49554,-13.26172 1.97494,-26.084176 3.47046,-12.822459 11.11609,-23.357728 7.50551,-10.359584 18.81044,-17.510243 11.3183,-7.032235 24.66668,-9.177092 l 6.94661,-0.783373 q 11.64348,-1.313035 23.2317,1.137448 z"
           style="font-style:normal;font-variant:normal;font-weight:normal;font-stretch:normal;font-size:medium;line-height:125%;font-family:Kabel;-inkscape-font-specification:Kabel;letter-spacing:0px;word-spacing:0px;fill:#278343;fill-opacity:1;stroke:none;stroke-width:1px;stroke-linecap:butt;stroke-linejoin:miter;stroke-opacity:1"
           id="path6381"
           inkscape:connector-curvature="0" />
        <path
           sodipodi:nodetypes="ccccccccccc"
           inkscape:connector-curvature="0"
           id="path6381-9"
           d="m 774.33698,31.537415 8.72656,22.425068 c -8.87696,-6.855556 -21.01598,-8.000794 -31.50241,-4.592819 -13.29453,3.409314 -24.90166,13.706438 -28.34101,27.209533 -4.93939,17.869243 0.0987,39.119503 15.33213,50.561493 17.94037,10.39663 37.05682,10.64341 50.12239,-3.47574 l -0.95381,21.51244 c -14.18752,8.56674 -32.13181,9.36996 -47.77115,4.65862 -22.5389,-6.72058 -37.31716,-27.44555 -39.69655,-50.97798 -3.01496,-24.540502 7.53944,-50.89988 29.69754,-62.207456 15.08362,-6.250786 29.88732,-8.13617 44.38627,-5.113159 z"
           style="font-style:normal;font-variant:normal;font-weight:normal;font-stretch:normal;font-size:medium;line-height:125%;font-family:Kabel;-inkscape-font-specification:Kabel;letter-spacing:0px;word-spacing:0px;fill:#41da70;fill-opacity:1;stroke:none;stroke-width:1px;stroke-linecap:butt;stroke-linejoin:miter;stroke-opacity:1" />
      </g>
    </g>
  </g>
  <metadata
     id="metadata40">
    <rdf:RDF>
      <cc:Work>
        <dc:format>image/svg+xml</dc:format>
        <dc:type
           rdf:resource="http://purl.org/dc/dcmitype/StillImage" />
        <cc:license
           rdf:resource="http://creativecommons.org/publicdomain/zero/1.0/" />
        <dc:publisher>
          <cc:Agent
             rdf:about="http://openclipart.org/">
            <dc:title>Openclipart</dc:title>
          </cc:Agent>
        </dc:publisher>
        <dc:title></dc:title>
        <dc:date>2010-04-21T04:22:19</dc:date>
        <dc:description>A blackboard with stand, chalk, eraser and a few letters written, all in slight perspective. Drawn in Inkscape.</dc:description>
        <dc:source>https://openclipart.org/detail/49381/blackboard-with-stand-and-letters-by-j_alves</dc:source>
        <dc:creator>
          <cc:Agent>
            <dc:title>J_Alves</dc:title>
          </cc:Agent>
        </dc:creator>
        <dc:subject>
          <rdf:Bag>
            <rdf:li>blackboard</rdf:li>
            <rdf:li>chalk</rdf:li>
            <rdf:li>chalkboard</rdf:li>
            <rdf:li>education</rdf:li>
            <rdf:li>letters</rdf:li>
            <rdf:li>school</rdf:li>
            <rdf:li>stand</rdf:li>
          </rdf:Bag>
        </dc:subject>
      </cc:Work>
      <cc:License
         rdf:about="http://creativecommons.org/publicdomain/zero/1.0/">
        <cc:permits
           rdf:resource="http://creativecommons.org/ns#Reproduction" />
        <cc:permits
           rdf:resource="http://creativecommons.org/ns#Distribution" />
        <cc:permits
           rdf:resource="http://creativecommons.org/ns#DerivativeWorks" />
      </cc:License>
    </rdf:RDF>
  </metadata>
</svg>
